<svg id="Layer_1" data-name="Layer 1" xmlns="http://www.w3.org/2000/svg" xmlns:xlink="http://www.w3.org/1999/xlink" viewBox="0 0 383 383"><defs><style>.cls-1{fill:none;}.cls-2{clip-path:url(#clip-path);}.cls-3{fill:url(#linear-gradient);}</style><clipPath id="clip-path" transform="translate(6.5 163)"><path class="cls-1" d="M9.05,0h0V19.2H24.76V0h9.05V46.93h-9V27.77h-9a9.36,9.36,0,0,1-2.25-.28h0a5.65,5.65,0,0,1-2.06-.87h0A5.4,5.4,0,0,1,9.91,25h0a5.47,5.47,0,0,1-.86-2.44h0V46.93H0V7.18H0A6.62,6.62,0,0,1,.77,3.93h0a7,7,0,0,1,2-2.25h0A8.29,8.29,0,0,1,5.65.43h0A13.49,13.49,0,0,1,9.05,0ZM66.37,46.93V43.14h0a16.49,16.49,0,0,1-5.56,3.6h0a15.27,15.27,0,0,1-6,1h0A15,15,0,0,1,49,46.4h0a14.27,14.27,0,0,1-5-3.64h0a17.81,17.81,0,0,1-3.5-5.7h0a20.65,20.65,0,0,1-1.29-7.56h0a19.34,19.34,0,0,1,1.39-7.42h0a17.77,17.77,0,0,1,3.78-5.85h0a17.26,17.26,0,0,1,5.41-3.68h0a14,14,0,0,1,6.37-1.2h0a10.07,10.07,0,0,1,5.17,1.44h0a8.29,8.29,0,0,1,2.83,3.06h0a8,8,0,0,1,.95,3.5h0a6.23,6.23,0,0,1-.57,2.87h0A5.57,5.57,0,0,0,61.29,20h0a15.37,15.37,0,0,0-4-.58h0a8.42,8.42,0,0,0-5.17,1.54h0a9.25,9.25,0,0,0-3.16,3.78h0a12,12,0,0,0-1.1,4.93h0a10.83,10.83,0,0,0,1,4.89h0A9.74,9.74,0,0,0,52,38.36h0a8.93,8.93,0,0,0,5.27,1.48h0a7.5,7.5,0,0,0,4.4-1.2h0a8.88,8.88,0,0,0,2.78-3.11h0a14.17,14.17,0,0,0,1.49-4.31h0a27.31,27.31,0,0,0,.43-4.74h0V12.21h8.71V46.93ZM90.21,0h0V46.93H81.79V6.85h0a6.06,6.06,0,0,1,2.29-5h0A9.17,9.17,0,0,1,90.21,0Zm23.56,11.4h0A17.58,17.58,0,0,1,123.21,14h0a19,19,0,0,1,6.46,6.47h0a18.17,18.17,0,0,1,2.49,8.81h0a17.34,17.34,0,0,1-2.44,9.43h0A17.64,17.64,0,0,1,124,44.82h0a19.46,19.46,0,0,1-7.61,2.83h0a18.27,18.27,0,0,1-8-.67h0A17.34,17.34,0,0,1,101,42.52h0A18.19,18.19,0,0,1,96.2,34h0a18.2,18.2,0,0,1,.19-9.63h0a7.53,7.53,0,0,1,2-3.25h0a9,9,0,0,1,3.11-1.87h0a10.58,10.58,0,0,1,3.6-.53h0a9.26,9.26,0,0,1,3.49.77h0a7.47,7.47,0,0,1,2.73,2h0a5.65,5.65,0,0,1,1.29,3.21h0a4.07,4.07,0,0,0-2.39-.81h0a6.13,6.13,0,0,0-2.73.62h0a5.54,5.54,0,0,0-2.2,2h0a5.5,5.5,0,0,0-.91,3.26h0a10.2,10.2,0,0,0,1.39,5.55h0a9.39,9.39,0,0,0,3.54,3.31h0a9.71,9.71,0,0,0,4.55,1.1h0a9.43,9.43,0,0,0,4.55-1.15h0A9.42,9.42,0,0,0,122,35.2h0a10.47,10.47,0,0,0,1.39-5.61h0a10.66,10.66,0,0,0-1-4.64h0a8.92,8.92,0,0,0-2.49-3.31h0a9.24,9.24,0,0,0-3.64-1.81h0a10.9,10.9,0,0,0-4.45,0h0a7.11,7.11,0,0,0-2.44-1.87h0a10.13,10.13,0,0,0-3.12-1h0a10.76,10.76,0,0,0-3.35.05h0a10.12,10.12,0,0,0-3.16,1.2h0a19.38,19.38,0,0,1,6.23-5h0A16.9,16.9,0,0,1,113.77,11.4ZM162,0h19.3V8.81h-18.1V19.2h18.1a12.58,12.58,0,0,1-.48,3.07h0A8.39,8.39,0,0,1,179.61,25h0a7.25,7.25,0,0,1-2.25,2h0a7,7,0,0,1-3.4.76H163.24V38.16h18.1v8.77h-27V8.14h0a8,8,0,0,1,2.16-6h0A7.59,7.59,0,0,1,162,0Zm43.24,22.89h0a5,5,0,0,0-1.49-2.06h0a7,7,0,0,0-2-1.15h0a5.76,5.76,0,0,0-2.11-.43h0a4.58,4.58,0,0,0-1.72.19h0a2.51,2.51,0,0,0-1.59,1.39h0a1.76,1.76,0,0,0,.39,1.87h0A5.53,5.53,0,0,0,198.62,24h0l2.88,1.39h0c1.08.51,2.2,1.1,3.35,1.77h0a16.9,16.9,0,0,1,3.11,2.3h0a11.47,11.47,0,0,1,2.3,3.16h0a9.35,9.35,0,0,1,.91,4.26h0A9.71,9.71,0,0,1,209.88,42h0a9.84,9.84,0,0,1-3.36,3.54h0a13.17,13.17,0,0,1-4.78,1.82h0a15.36,15.36,0,0,1-5.37.1h0a15.49,15.49,0,0,1-5.26-1.82h0a14.3,14.3,0,0,1-4.41-3.93h0l5.36-5.79h0a11,11,0,0,0,3.55,2.92h0a9.5,9.5,0,0,0,3.4,1h0a4.87,4.87,0,0,0,2.63-.48h0A2.44,2.44,0,0,0,203,37.73h0a2.94,2.94,0,0,0-.57-2.15h0a8.44,8.44,0,0,0-3.12-2.3h0c-1.43-.73-2.82-1.47-4.16-2.2h0a19.6,19.6,0,0,1-3.64-2.59h0A11.69,11.69,0,0,1,189,25.38h0a8.5,8.5,0,0,1-1-4.12h0A8.88,8.88,0,0,1,189,17h0a9.14,9.14,0,0,1,2.68-3.16h0A11,11,0,0,1,195.46,12h0a15.09,15.09,0,0,1,4.46-.57h0a11.28,11.28,0,0,1,5.93,1.72h0a6.58,6.58,0,0,1,2.54,3.45h0a5.49,5.49,0,0,1-.33,3.69h0A5.23,5.23,0,0,1,205.28,22.89ZM225.2,12.31V16h0a15.26,15.26,0,0,1,5.46-3.64h0a15.58,15.58,0,0,1,6-1h0a15.71,15.71,0,0,1,5.85,1.43h0a14.36,14.36,0,0,1,4.93,3.6h0a18.45,18.45,0,0,1,3.49,5.69h0a20.46,20.46,0,0,1,1.3,7.47h0A18.51,18.51,0,0,1,250.77,37h0A17.82,17.82,0,0,1,247,42.71h0a16,16,0,0,1-5.41,3.74h0a14.24,14.24,0,0,1-6.27,1.15h0a9.58,9.58,0,0,1-5.27-1.44h0a7.82,7.82,0,0,1-2.82-3h0a7.34,7.34,0,0,1-.86-3.44h0a6.11,6.11,0,0,1,.57-2.88h0a6,6,0,0,0,1.49,1.39h0a5.82,5.82,0,0,0,1.77.86h0a14.46,14.46,0,0,0,2,.44h0a15.81,15.81,0,0,0,2,.14h0a8.34,8.34,0,0,0,5.12-1.53h0a9.33,9.33,0,0,0,3.16-3.74h0a11.84,11.84,0,0,0,1-4.88h0a11.66,11.66,0,0,0-1-4.89h0a9.48,9.48,0,0,0-3.06-3.78h0a8.86,8.86,0,0,0-5.22-1.48h0a7.52,7.52,0,0,0-4.36,1.19h0a8.45,8.45,0,0,0-2.78,3.12h0a14,14,0,0,0-1.48,4.26h0a25.66,25.66,0,0,0-.43,4.69h0V60h-8.67V19.25h0a6.34,6.34,0,0,1,.72-3.06h0a6.12,6.12,0,0,1,1.92-2.25h0a7.38,7.38,0,0,1,2.72-1.3h0a10.22,10.22,0,0,1,3.31-.33Zm49.18-.91h0A17.4,17.4,0,0,1,283.81,14h0a19,19,0,0,1,6.46,6.47h0a18.43,18.43,0,0,1,2.54,8.81h0a17.57,17.57,0,0,1-2.49,9.43h0a17.62,17.62,0,0,1-5.74,6.13h0A19.17,19.17,0,0,1,277,47.65h0a18.48,18.48,0,0,1-8.09-.67h0a17.37,17.37,0,0,1-7.28-4.46h0A18.71,18.71,0,0,1,256.8,34h0a17.9,17.9,0,0,1,.24-9.63h0a7.11,7.11,0,0,1,2-3.25h0a9.43,9.43,0,0,1,3.11-1.87h0a10.7,10.7,0,0,1,3.64-.53h0a8.88,8.88,0,0,1,3.44.77h0a7.47,7.47,0,0,1,2.73,2h0a5.66,5.66,0,0,1,1.3,3.21h0a4.07,4.07,0,0,0-2.4-.81h0a6.39,6.39,0,0,0-2.73.62h0a5.61,5.61,0,0,0-2.2,2h0a5.5,5.5,0,0,0-.91,3.26h0a10,10,0,0,0,1.44,5.55h0a9.12,9.12,0,0,0,3.49,3.31h0a9.74,9.74,0,0,0,4.55,1.1h0a9.71,9.71,0,0,0,4.6-1.15h0a9,9,0,0,0,3.49-3.35h0A10.47,10.47,0,0,0,284,29.59h0A11.11,11.11,0,0,0,283,25h0a9.58,9.58,0,0,0-2.53-3.31h0a9.37,9.37,0,0,0-3.64-1.81h0a10.7,10.7,0,0,0-4.41,0h0A7,7,0,0,0,270,17.91h0a10.63,10.63,0,0,0-3.16-1h0a10.75,10.75,0,0,0-3.35.05h0a9.54,9.54,0,0,0-3.12,1.2h0a19.38,19.38,0,0,1,6.23-5h0A16.65,16.65,0,0,1,274.38,11.4Zm23.79,35.53V12.07h7.52v4.45h0a10.55,10.55,0,0,1,2.92-3.73h0a6.74,6.74,0,0,1,3.93-1.49h0a6.61,6.61,0,0,1,4.55,1h0a6.89,6.89,0,0,1,2.44,3h0a6.41,6.41,0,0,1,.38,3.64h0a4.5,4.5,0,0,1-1.82,2.92h0a3.45,3.45,0,0,0-2.29-2.2h0a6,6,0,0,0-3.6.15h0a7.79,7.79,0,0,0-3.4,2.39h0A8.07,8.07,0,0,0,307,26.77h0c-.09,1.08-.14,2.15-.14,3.21h0v2.87h0V46.93ZM329,12.5V6.85h0a6.39,6.39,0,0,1,.72-3.16h0a5.19,5.19,0,0,1,1.87-2.11h0a8.1,8.1,0,0,1,2.68-1.2h0A13.65,13.65,0,0,1,337.39,0h0V12.5h7.81a13.6,13.6,0,0,1-.24,2.58h0a6.62,6.62,0,0,1-.91,2.35h0a5.56,5.56,0,0,1-1.82,1.68h0a6.29,6.29,0,0,1-3,.62h-1.87v19h0a1.56,1.56,0,0,0,.82,1.53h0a3.54,3.54,0,0,0,1.86.39h0a6.27,6.27,0,0,0,2.16-.48h0a3.3,3.3,0,0,0,1.53-1.29h0a5,5,0,0,1,.1,3.92h0a6,6,0,0,1-2.4,2.73h0a9.1,9.1,0,0,1-3.83,1.34h0a8.29,8.29,0,0,1-4.07-.33h0a7,7,0,0,1-3.26-2.25h0A7,7,0,0,1,329,39.79h0V19.73h-4.31V12.5Zm38.79,10.39h0a5.16,5.16,0,0,0-1.44-2.06h0a6.87,6.87,0,0,0-2.06-1.15h0a5.8,5.8,0,0,0-2.15-.43h0a4.58,4.58,0,0,0-1.72.19h0a2.35,2.35,0,0,0-1.54,1.39h0a1.8,1.8,0,0,0,.34,1.87h0A6.19,6.19,0,0,0,361.09,24h0L364,25.38h0q1.62.77,3.3,1.77h0a14.83,14.83,0,0,1,3.11,2.3h0a11,11,0,0,1,2.35,3.16h0a9.48,9.48,0,0,1,.91,4.26h0a9.62,9.62,0,0,1-1.3,5.08h0A10.27,10.27,0,0,1,369,45.49h0a13.24,13.24,0,0,1-4.75,1.82h0a15.29,15.29,0,0,1-5.36.1h0a15.11,15.11,0,0,1-5.27-1.82h0a14.27,14.27,0,0,1-4.4-3.93h0l5.36-5.79h0a11.16,11.16,0,0,0,3.5,2.92h0a9.9,9.9,0,0,0,3.45,1h0a5,5,0,0,0,2.63-.48h0a2.44,2.44,0,0,0,1.29-1.54h0a2.69,2.69,0,0,0-.57-2.15h0a8.53,8.53,0,0,0-3.07-2.3h0c-1.43-.73-2.84-1.47-4.21-2.2h0A20.23,20.23,0,0,1,354,28.49h0a12.3,12.3,0,0,1-2.59-3.11h0a8.5,8.5,0,0,1-1-4.12h0a8.88,8.88,0,0,1,1-4.26h0a9.14,9.14,0,0,1,2.68-3.16h0A11,11,0,0,1,358,12h0a14.93,14.93,0,0,1,4.41-.57h0a11.1,11.1,0,0,1,5.93,1.72h0a6.48,6.48,0,0,1,2.59,3.45h0a5.49,5.49,0,0,1-.33,3.69h0A5.22,5.22,0,0,1,367.75,22.89Z"/></clipPath><linearGradient id="linear-gradient" x1="-769.2" y1="570.72" x2="-767.92" y2="570.72" gradientTransform="matrix(271.89, 126.79, 126.79, -271.89, 136740.87, 252782.92)" gradientUnits="userSpaceOnUse"><stop offset="0" stop-color="#4b279b"/><stop offset="1" stop-color="#df99d8"/></linearGradient></defs><g class="cls-2"><rect class="cls-3" width="383" height="383"/></g></svg>